<svg width="64" height="64" viewBox="0 0 64 64" fill="none" xmlns="http://www.w3.org/2000/svg">
<circle cx="32" cy="32" r="32" fill="#3770FF"/>
<path d="M44.0975 19.9024C41.7903 17.5936 40.0575 17.9392 40.0575 17.9392L30.3743 27.6224L19.5359 38.4592L17.9199 46.0784L25.5407 44.4624L36.3791 33.6288L46.0623 23.9456C46.0607 23.9456 46.4079 22.2128 44.0975 19.9024ZM25.0879 43.5472L22.4895 44.1072C22.202 43.5553 21.8294 43.0521 21.3855 42.616C20.949 42.1722 20.4458 41.7991 19.8943 41.5104L20.4543 38.9136L21.2063 38.1632C21.2063 38.1632 22.6191 38.192 24.2159 39.7888C25.8111 41.3824 25.8415 42.7984 25.8415 42.7984L25.0879 43.5472Z" fill="white"/>
</svg>
